<svg width="11" height="18" viewBox="0 0 11 18" fill="none" xmlns="http://www.w3.org/2000/svg">
<path d="M2.99995 0.999946C3.4999 1.49991 9.24994 7.49991 9.74994 7.99991C9.76765 8.01761 9.78472 8.03594 9.80117 8.05486C9.8173 8.0734 9.83282 8.0925 9.84774 8.11211C9.86366 8.13304 9.87888 8.15455 9.89343 8.17659C9.90894 8.20011 9.92367 8.22424 9.93762 8.24891C9.94835 8.26789 9.95861 8.2872 9.96842 8.3068C9.97954 8.32902 9.99007 8.35163 10 8.37458C10.0149 8.40894 10.0284 8.44407 10.0406 8.47983C10.052 8.51297 10.0621 8.54665 10.0712 8.58076C10.0802 8.61459 10.088 8.64884 10.0947 8.6834C10.098 8.7 10.1009 8.71667 10.1036 8.73341C10.1098 8.7712 10.1146 8.8093 10.118 8.84758C10.1209 8.87864 10.1228 8.90981 10.1239 8.94103C10.1246 8.96068 10.1249 8.98034 10.1249 9C10.1249 9.0196 10.1246 9.0392 10.1239 9.05878C10.1232 9.07975 10.1221 9.10071 10.1205 9.12162C10.1192 9.13993 10.1176 9.15821 10.1157 9.17645C10.1125 9.20659 10.1085 9.2366 10.1036 9.26641C10.0989 9.29538 10.0935 9.32416 10.0872 9.3527C10.0808 9.38225 10.0735 9.41154 10.0653 9.44049C10.0597 9.46049 10.0537 9.48034 10.0473 9.5C10.0376 9.52984 10.027 9.55926 10.0154 9.58818C10.0066 9.61023 9.99728 9.63199 9.98742 9.65343C9.97733 9.67535 9.9667 9.69694 9.9555 9.71816C9.94646 9.73529 9.93706 9.75218 9.9273 9.76881C9.91645 9.78728 9.90516 9.80543 9.89343 9.82322C9.87888 9.84527 9.86366 9.86678 9.84774 9.8877C9.83282 9.90732 9.8173 9.92642 9.80117 9.94496C9.78472 9.96387 9.76765 9.9822 9.74994 9.99991C9.24994 10.4999 3.49989 16.4999 2.99994 16.9999C2.97518 17.0247 2.94919 17.0483 2.92209 17.0706C2.88902 17.0978 2.8543 17.1232 2.81815 17.1468C2.77241 17.1766 2.72438 17.2036 2.67452 17.2275C2.61843 17.2545 2.56002 17.2778 2.49992 17.2974C2.43153 17.3197 2.36095 17.3372 2.28913 17.3498C2.2305 17.3602 2.17105 17.3673 2.11127 17.3713C2.07426 17.3738 2.03713 17.375 2 17.375C1.96285 17.375 1.92571 17.3738 1.88868 17.3713C1.85102 17.3688 1.81349 17.365 1.7762 17.36C1.74125 17.3553 1.70652 17.3495 1.67212 17.3425C1.63799 17.3356 1.60418 17.3276 1.5708 17.3185C1.54697 17.312 1.52336 17.305 1.5 17.2974C1.46759 17.2868 1.43568 17.2752 1.40435 17.2625C1.37757 17.2516 1.35123 17.24 1.32538 17.2275C1.30112 17.2159 1.2773 17.2035 1.25397 17.1905C1.22932 17.1767 1.20522 17.1621 1.18172 17.1468C1.14557 17.1232 1.11084 17.0978 1.07776 17.0706C1.05065 17.0483 1.02465 17.0247 0.999878 16.9999C0.97097 16.971 0.943735 16.9405 0.91817 16.9084C0.897291 16.8822 0.877526 16.8551 0.858877 16.827C0.834 16.7896 0.811108 16.7507 0.790199 16.7104C0.771317 16.674 0.754054 16.6365 0.738408 16.5982C0.719774 16.5525 0.703434 16.5056 0.689388 16.4577C0.675697 16.4111 0.664185 16.3635 0.654852 16.3153C0.643888 16.2587 0.635931 16.2012 0.630983 16.1434C0.626911 16.0957 0.624876 16.0479 0.624878 16C0.624878 15.9676 0.625813 15.9352 0.627678 15.9029C0.629586 15.8699 0.632469 15.837 0.636326 15.8042C0.641044 15.7641 0.647219 15.7243 0.654852 15.6848C0.664185 15.6366 0.675697 15.5891 0.689388 15.5424C0.703435 15.4945 0.719774 15.4475 0.738408 15.4019C0.754054 15.3635 0.771318 15.326 0.790199 15.2897C0.811108 15.2493 0.834001 15.2104 0.858877 15.1729C0.881829 15.1384 0.906469 15.1052 0.932797 15.0736C0.954057 15.048 0.976417 15.0234 0.999878 15C1.49976 14.4999 5.99997 9.99992 6.49996 9.49993L6.50012 9.49977C6.53199 9.4679 6.56182 9.43807 6.58962 9.41001C6.63306 9.36616 6.67155 9.32664 6.70507 9.29046C6.72292 9.27119 6.73936 9.25287 6.7544 9.23535C6.77839 9.20739 6.79881 9.18145 6.81564 9.15695C6.828 9.13894 6.83844 9.1217 6.84694 9.10499C6.8656 9.06829 6.87494 9.03415 6.87495 9C6.87496 8.96582 6.86562 8.93164 6.84694 8.8949C6.83476 8.87095 6.81861 8.84593 6.79849 8.8191C6.77348 8.78577 6.74234 8.74966 6.70507 8.70943C6.67155 8.67324 6.63306 8.63372 6.58962 8.58987C6.56182 8.56181 6.53198 8.53197 6.50011 8.5001L6.49996 8.49995L0.999878 2.99995C0.966984 2.96706 0.936273 2.93197 0.907743 2.89497C0.881667 2.86116 0.857414 2.82574 0.834981 2.78895C0.811242 2.75002 0.789542 2.70955 0.769879 2.6678C0.749457 2.62445 0.731233 2.57971 0.715203 2.53389C0.704612 2.50362 0.69498 2.47287 0.686305 2.44174C0.67476 2.40031 0.664911 2.35818 0.656757 2.31558C0.648046 2.27005 0.641268 2.22397 0.636424 2.17758C0.630279 2.11872 0.627244 2.05936 0.627318 2C0.627372 1.95651 0.629094 1.91302 0.632482 1.86972C0.636068 1.8239 0.641519 1.7783 0.648836 1.73315C0.656932 1.68318 0.667313 1.63376 0.679974 1.58521C0.69362 1.53288 0.709916 1.48156 0.728859 1.43163C0.751259 1.37259 0.77736 1.3155 0.807158 1.26102C0.836984 1.20649 0.870513 1.15457 0.907743 1.10591C0.936308 1.06857 0.967052 1.03315 0.999972 0.99995C1.0351 0.964523 1.07269 0.931607 1.1124 0.901196C1.1488 0.873327 1.18697 0.847563 1.22666 0.823899C1.26191 0.802881 1.29836 0.783519 1.33581 0.765813C1.37622 0.746712 1.4178 0.729537 1.46031 0.714284C1.49603 0.701472 1.53241 0.690016 1.56931 0.679915C1.60648 0.669739 1.64418 0.660939 1.68228 0.653512C1.71565 0.647005 1.74931 0.641553 1.78318 0.637154C1.81397 0.633154 1.84493 0.630025 1.87598 0.627764C1.90816 0.625422 1.94044 0.624012 1.97275 0.623535C2.00521 0.623056 2.03769 0.623518 2.07011 0.624919C2.09741 0.6261 2.12467 0.627947 2.15184 0.630459C2.18511 0.633536 2.21824 0.637612 2.25115 0.642684C2.28227 0.647481 2.31319 0.653169 2.34384 0.659748C2.37172 0.665734 2.39937 0.672456 2.42673 0.679915C2.4514 0.686638 2.47584 0.69396 2.5 0.701879C2.541 0.715316 2.58122 0.730475 2.62044 0.747351C2.64733 0.758917 2.67375 0.77129 2.69964 0.784469C2.73205 0.800968 2.76364 0.81873 2.79427 0.837754C2.81598 0.851238 2.8372 0.865356 2.85791 0.880108C2.88572 0.899923 2.91258 0.920881 2.93838 0.942981C2.95964 0.961194 2.98018 0.980183 2.99995 0.999946Z" fill="black"/>
</svg>
