<svg width="28" height="28" viewBox="0 0 28 28" fill="none" xmlns="http://www.w3.org/2000/svg">
<path d="M14 0C16.7689 0 19.4757 0.821086 21.778 2.35943C24.0803 3.89777 25.8747 6.08427 26.9343 8.64243C27.9939 11.2006 28.2712 14.0155 27.731 16.7313C27.1908 19.447 25.8574 21.9416 23.8995 23.8995C21.9416 25.8574 19.447 27.1908 16.7313 27.731C14.0155 28.2712 11.2006 27.9939 8.64243 26.9343C6.08426 25.8747 3.89776 24.0803 2.35942 21.778C0.821079 19.4757 -5.72205e-06 16.7689 -5.72205e-06 14C0.00396484 10.2882 1.48024 6.72954 4.10489 4.10489C6.72953 1.48024 10.2882 0.00397056 14 0ZM8.95999 14.73L15.31 20.73C15.498 20.9034 15.7443 20.9998 16 21C16.1361 20.9991 16.2707 20.9712 16.396 20.918C16.5213 20.8648 16.6348 20.7873 16.73 20.69C16.9121 20.496 17.0101 20.2378 17.0026 19.9718C16.9951 19.7057 16.8828 19.4535 16.69 19.27L11.1 14L16.69 8.73C16.8836 8.547 16.9966 8.29459 17.0041 8.02828C17.0078 7.89642 16.9855 7.76513 16.9385 7.64188C16.8914 7.51864 16.8206 7.40587 16.73 7.31C16.6394 7.21414 16.5308 7.13706 16.4104 7.08316C16.29 7.02927 16.1601 6.99962 16.0283 6.99591C15.762 6.98841 15.5036 7.087 15.31 7.27L8.95999 13.27C8.85915 13.363 8.77867 13.4759 8.72363 13.6015C8.66858 13.7271 8.64016 13.8628 8.64016 14C8.64016 14.1372 8.66858 14.2729 8.72363 14.3985C8.77867 14.5241 8.85915 14.637 8.95999 14.73Z" fill="black"/>
</svg>
