<svg width="132" height="125" viewBox="0 0 132 125" fill="none" xmlns="http://www.w3.org/2000/svg">
<path d="M86.9735 91.7332L87.5134 91.2283L86.8439 90.9151C86.2524 90.6384 85.5083 90.5332 84.6993 90.532C83.8833 90.5308 82.9606 90.6357 81.9861 90.8112C80.037 91.1623 77.831 91.805 75.7655 92.5006C73.6972 93.1972 71.7557 93.9516 70.3323 94.5314C69.6203 94.8214 69.0371 95.068 68.6315 95.2423C68.4287 95.3295 68.2703 95.3986 68.1623 95.446L68.0389 95.5004L68.007 95.5146L68.0017 95.517C66.0496 96.3325 64.0731 97.007 62.072 97.5407C61.9366 92.7675 61.8533 87.3525 61.8222 81.2952C67.9678 80.7277 74.0723 80.444 80.136 80.444C86.1996 80.444 92.304 80.7277 98.4495 81.2952C98.3592 96.9526 97.9035 109.025 97.0847 117.519C92.8532 118.119 88.8606 119.003 85.1075 120.171L84.6938 120.299L84.7623 120.727L85.2743 123.927L85.3511 124.407L85.833 124.344C91.01 123.665 97.3016 123.324 104.712 123.324C112.207 123.324 118.671 123.665 124.106 124.344L124.602 124.406L124.664 123.91L125.048 120.838L125.103 120.397L124.671 120.29C119.922 119.124 115.332 118.321 110.9 117.883C109.842 111.553 109.308 100.581 109.308 84.936V39.368C109.308 31.4385 110.653 26.0328 113.216 23.0042C114.31 22.4879 116.063 22.204 118.536 22.204C121.08 22.204 122.658 22.636 123.448 23.354L123.622 23.5123L123.855 23.479L124.751 23.351L124.986 23.3173L125.109 23.1133C126.359 21.0295 128.118 18.9321 130.396 16.8229L130.556 16.6745V16.456C130.556 15.2752 130.055 14.319 129.087 13.6312C128.232 12.8801 127.225 12.5 126.088 12.5C121.189 12.5 115.562 15.6939 109.227 21.8576L109.225 21.86C102.969 28.0305 98.9789 33.7739 97.3226 39.0913L97.2934 39.185L97.3018 39.2828C97.9762 47.122 98.3593 58.5642 98.4495 73.6174C92.8012 74.3442 86.8675 74.708 80.648 74.708C74.4153 74.708 68.1414 74.3019 61.8261 73.4896C61.9964 61.3163 62.3673 52.0844 62.9372 45.786C67.0794 44.7791 70.7822 43.649 74.0435 42.3947L74.4217 42.2492L74.3577 41.849L73.8457 38.649L73.7641 38.139L73.257 38.2371C70.6478 38.7421 67.7787 38.996 64.648 38.996C61.5999 38.996 57.3525 38.7418 51.8985 38.2305C46.4606 37.6358 43.35 37.332 42.632 37.332H42.5464L42.4656 37.3605C37.9945 38.9386 33.2323 42.6828 28.1743 48.5123C23.1194 54.3384 20.5 59.4478 20.5 63.816C20.5 64.9575 20.8829 65.9674 21.6395 66.824C22.327 67.7009 23.2657 68.1865 24.4145 68.2823L24.6573 68.3025L24.8229 68.1237C26.9321 65.8458 29.0295 64.087 31.1132 62.8367L31.3173 62.7143L31.351 62.4787L31.479 61.5827L31.5123 61.3498L31.354 61.1757C30.636 60.3859 30.204 58.8076 30.204 56.264C30.204 53.7813 30.4901 52.0248 31.0102 50.9316C32.3261 49.6908 34.5126 48.7135 37.6477 48.0491C40.7532 47.391 44.7351 47.0509 49.6031 47.0365C50.5101 56.2822 50.964 66.3978 50.964 77.384V84.936C50.964 90.1236 50.908 94.8309 50.796 99.0584C50.6667 99.0595 50.5374 99.06 50.408 99.06C45.3683 99.06 40.8034 97.9274 36.7027 95.6691C32.6765 93.3194 29.2324 90.087 26.3708 85.963C23.5063 81.8347 21.2667 76.9385 19.658 71.267C18.1354 65.5982 17.372 59.4142 17.372 52.712C17.372 46.4404 18.1771 40.5574 19.7839 35.0603L19.7845 35.0583C21.392 29.4742 23.6724 24.6652 26.6195 20.6233C29.6517 16.4963 33.2679 13.2605 37.4683 10.9083L37.4712 10.9066C41.7423 8.47796 46.5201 7.26 51.816 7.26C60.1656 7.26 66.8399 8.84204 71.879 11.9624L56.8073 26.6499L56.1989 27.2428L57.0126 27.4869C57.1134 27.5171 57.2045 27.5115 57.2374 27.5092C57.2845 27.506 57.331 27.4989 57.3717 27.4914C57.4539 27.4763 57.5507 27.4524 57.6541 27.4241C57.863 27.3671 58.1367 27.2815 58.4508 27.1783C59.0797 26.9718 59.8998 26.6847 60.7486 26.3877L60.7528 26.3862C61.6415 26.0752 62.563 25.7527 63.3447 25.4942C64.142 25.2305 64.7498 25.0486 65.0345 25.0012L65.1673 24.979L65.2711 24.8931L84.3908 9.06515L84.9617 8.59256L84.3098 8.24015C74.7631 3.07976 64.4411 0.5 53.352 0.5C44.9273 0.5 37.3866 2.04766 30.7402 5.15506L30.738 5.15613C24.1944 8.25571 18.6766 12.3923 14.1915 17.567C9.71192 22.65 6.30979 28.4648 3.98527 35.0074C1.66208 41.461 0.5 48.0887 0.5 54.888C0.5 61.594 1.48882 68.1714 3.46597 74.6186L3.46591 74.6186L3.46839 74.6263C5.53499 80.9983 8.63629 86.7279 12.7721 91.8116L12.7748 91.8148C16.9193 96.8227 22.1395 100.876 28.4268 103.976L28.4318 103.979C34.709 106.988 42.0384 108.493 50.4065 108.508C50.1987 112.013 49.9329 115.016 49.6099 117.517C45.3736 118.118 41.3765 119.002 37.6195 120.171L37.2058 120.299L37.2743 120.727L37.7863 123.927L37.8646 124.416L38.3546 124.342C42.8424 123.665 48.7453 123.324 56.072 123.324C63.481 123.324 70.3321 123.665 76.6263 124.345L77.1152 124.398L77.1761 123.91L77.5601 120.838L77.6153 120.397L77.1833 120.29C72.4375 119.125 67.85 118.322 63.4213 117.884C63.0202 115.11 62.6927 111.402 62.4403 106.754C70.7225 104.302 78.8996 99.2843 86.9735 91.7332Z" fill="#C4C4C4" stroke="black"/>
</svg>
